# xmcd
#
# Track frame offsets: 
#        150
#        26407
#        44895
#        62355
#        84442
#        100617
#        120155
#        134552
#        155977
#        182065
#        203530
#        226862
#
# Disc length: 3281 seconds
#
# Revision: 2
# Processed by: cddbd v1.5.2PL0 Copyright (c) Steve Scherf et al.
# Submitted via: ExactAudioCopy v0.99pb4
#
DISCID=950ccf0c
DTITLE=Various Artist - Healing Collection IV
DYEAR=2003
DGENRE=New Age
TTITLE0=Distant Thunder - Jia Peng Fang
TTITLE1=Seasons - Missa Johnouchi
TTITLE2=Moonlight - Jiang Xiao-Qing
TTITLE3=Milky Way - Shao Rong
TTITLE4=Aqua - Yasuko Kyoda
TTITLE5=In the Garden - Jia Peng Fang
TTITLE6=Shanghai Twilight - Missa Johnouchi
TTITLE7=Scenes of Spring - Masaji Watanabe
TTITLE8=A Day Goes By - Shao Rong
TTITLE9=Water's Edge - Jiang Xiao-Qing
TTITLE10=Moon Over The Border - Missa Johnouchi featuring The Li-Hua E
TTITLE10=nsemble
TTITLE11=White Garden - Rikiya Yamashita
EXTD=YEAR: 2004
EXTT0=
EXTT1=
EXTT2=
EXTT3=
EXTT4=
EXTT5=
EXTT6=
EXTT7=
EXTT8=
EXTT9=
EXTT10=
EXTT11=
PLAYORDER=
